<?xml version="1.0" standalone="no"?>
<!DOCTYPE svg PUBLIC "-//W3C//DTD SVG 20010904//EN"
 "http://www.w3.org/TR/2001/REC-SVG-20010904/DTD/svg10.dtd">
<svg version="1.0" xmlns="http://www.w3.org/2000/svg"
 width="307.000000pt" height="307.000000pt" viewBox="0 0 307.000000 307.000000"
 preserveAspectRatio="xMidYMid meet">
<metadata>
Created by potrace 1.14, written by Peter Selinger 2001-2017
</metadata>
<g transform="translate(0.000000,307.000000) scale(0.100000,-0.100000)"
fill="#000000" stroke="none">
<path d="M1425 3029 c-261 -24 -484 -98 -693 -233 -227 -145 -422 -367 -538
-611 -24 -51 -44 -96 -44 -100 0 -4 -6 -21 -14 -38 -8 -18 -20 -52 -27 -77 -7
-25 -14 -49 -15 -55 -2 -5 -13 -62 -24 -125 -34 -188 -28 -416 16 -595 28
-113 82 -262 123 -335 52 -95 71 -126 120 -194 146 -207 388 -400 622 -496 79
-33 222 -77 279 -86 19 -3 38 -8 42 -10 25 -15 297 -23 413 -12 547 54 1041
441 1236 970 40 108 72 247 84 358 5 42 5 287 1 315 -2 11 -6 43 -11 70 -55
361 -250 701 -535 930 -290 234 -679 356 -1035 324z"/>
</g>
</svg>
